<svg xmlns="http://www.w3.org/2000/svg" viewBox="0 0 149.13 243.42"><defs><style>.cls-1,.cls-4,.cls-7{fill:#fff;}.cls-1,.cls-10,.cls-2,.cls-3,.cls-4,.cls-5,.cls-9{stroke:#1d1d1b;}.cls-1,.cls-10,.cls-2,.cls-3,.cls-4,.cls-5,.cls-6,.cls-7,.cls-9{stroke-miterlimit:10;}.cls-2,.cls-5,.cls-8{fill:#1d1d1b;}.cls-3{fill:#f7a952;}.cls-10,.cls-3,.cls-4,.cls-5,.cls-7,.cls-9{stroke-width:0.5px;}.cls-6{fill:#242e42;}.cls-6,.cls-7{stroke:#fff;}.cls-8{font-size:25px;font-family:ArialRoundedMTBold, Arial Rounded MT Bold;}.cls-9{fill:#36a9e1;}.cls-10{fill:#e30613;}</style></defs><title>logoWildMovie</title><g id="contour_popcorn" data-name="contour popcorn"><path class="cls-1" d="M233,352.13s-2.92-2.3-2.24-4.65,1-4.12,2.6-4.28,4.13-.1,4.65.58-.1-1.41.63-2a5.34,5.34,0,0,1,3.08-1.46,7.45,7.45,0,0,1,3.18.73c.31.26,1-.15,1.51-.73s2.56-1.51,3.71-.94a13.65,13.65,0,0,1,3.5,2.66c.62.79,2.14,3.87,1.46,5s-1.83,1.72-1.93,2.87.36,3.39-1.15,3.5-2.46-.21-2.51.94-.05,2.45-.94,3.08a4.38,4.38,0,0,1-3.75.57c-1.05-.52-1.83-1.25-1.52-2.19s.7-1.25-.33-.47a6.66,6.66,0,0,1-4.16,1.15,3.45,3.45,0,0,1-2.24-2.25c-.16-1,.83-3.18-.26-2.61S233.45,352.52,233,352.13Z" transform="translate(-212.37 -210.43)"/><path class="cls-2" d="M240.94,348.16s-1.72-.42-1.72-1.46-.36-2.19.57-2.14,3.14.41,3.5,0,1.67-1.52,2.25-.89a29.09,29.09,0,0,0,2.08,2.45c.42.27.79,1.57,0,2a15.42,15.42,0,0,0-2,1.57c-.31.26-.63,1.56-1,.78s-.63-1.25-1.31-1.57S241.54,348.37,240.94,348.16Z" transform="translate(-212.37 -210.43)"/><path class="cls-1" d="M246.76,345.28s-1.6-3.35,0-5.15,2.71-3.26,4.24-2.69,3.74,1.73,3.91,2.57.53-1.31,1.44-1.5a5.31,5.31,0,0,1,3.41,0,7.51,7.51,0,0,1,2.53,2.07c.16.37,1,.32,1.68,0s3-.23,3.74.8a13.61,13.61,0,0,1,2,3.93c.21,1,.21,4.41-.88,5.09s-2.4.74-3,1.72-1.17,3.21-2.58,2.63-2.11-1.27-2.66-.26-1.13,2.18-2.2,2.35a4.38,4.38,0,0,1-3.63-1.15c-.7-.93-1.08-1.93-.39-2.63s1.18-.82-.09-.57a6.63,6.63,0,0,1-4.23-.81,3.43,3.43,0,0,1-1-3c.33-1,2.16-2.49.92-2.46S247,345.83,246.76,345.28Z" transform="translate(-212.37 -210.43)"/><path class="cls-2" d="M255.63,345.23s-1.36-1.13-.9-2.07.64-2.13,1.46-1.67,2.63,1.76,3.14,1.55,2.17-.62,2.41.19a29.41,29.41,0,0,0,.79,3.13c.25.42,0,1.75-.9,1.82a17.51,17.51,0,0,0-2.47.53c-.4.1-1.26,1.13-1.29.24a2.86,2.86,0,0,0-.48-2C256.92,346.39,256.08,345.69,255.63,345.23Z" transform="translate(-212.37 -210.43)"/><path class="cls-1" d="M261.9,351.2s-2.13-2-1.42-3.83,1.08-3.17,2.37-3.18,3.26.23,3.62.8,0-1.12.64-1.52a4.13,4.13,0,0,1,2.53-.92,5.87,5.87,0,0,1,2.46.81c.22.23.83-.05,1.24-.47a3.2,3.2,0,0,1,3-.47,10.88,10.88,0,0,1,2.56,2.36c.44.66,1.4,3.2.79,4s-1.57,1.23-1.74,2.12,0,2.7-1.16,2.68-1.92-.35-2,.55-.22,1.93-1,2.36a3.44,3.44,0,0,1-3,.17c-.79-.48-1.35-1.12-1-1.83s.64-.94-.23-.4a5.24,5.24,0,0,1-3.36.6,2.71,2.71,0,0,1-1.6-1.93c-.05-.84.89-2.45,0-2.08S262.22,351.54,261.9,351.2Z" transform="translate(-212.37 -210.43)"/><path class="cls-2" d="M268.45,348.66s-1.33-.46-1.25-1.28-.13-1.75.61-1.64,2.43.55,2.75.25,1.43-1.07,1.84-.53a23.32,23.32,0,0,0,1.46,2.09c.31.23.5,1.29-.15,1.6a12.35,12.35,0,0,0-1.68,1.09c-.26.18-.61,1.19-.88.54s-.4-1-.91-1.33S268.91,348.87,268.45,348.66Z" transform="translate(-212.37 -210.43)"/><path class="cls-1" d="M321.16,344.34s-.74-3,.92-4.2,2.77-2.19,3.91-1.46,2.76,2.05,2.75,2.77.66-1,1.43-1a4.41,4.41,0,0,1,2.77.63,6.24,6.24,0,0,1,1.72,2.11c.07.34.76.44,1.36.3s2.46.33,2.92,1.29a11.45,11.45,0,0,1,.92,3.55c0,.84-.59,3.63-1.59,4s-2.09.19-2.75.89-1.5,2.41-2.55,1.7-1.5-1.4-2.13-.67-1.29,1.58-2.2,1.53a3.63,3.63,0,0,1-2.76-1.55c-.41-.88-.55-1.77.14-2.22s1.1-.46,0-.48a5.43,5.43,0,0,1-3.31-1.39,2.85,2.85,0,0,1-.32-2.62c.44-.77,2.19-1.66,1.17-1.85S321.25,344.82,321.16,344.34Z" transform="translate(-212.37 -210.43)"/><path class="cls-2" d="M328.4,345.83s-.91-1.16-.38-1.85.89-1.62,1.48-1.11,1.84,1.89,2.3,1.8,1.87-.13,1.92.58a25.71,25.71,0,0,0,.11,2.68c.14.39-.29,1.43-1.05,1.33a14.27,14.27,0,0,0-2.11,0c-.33,0-1.21.7-1.08,0a2.39,2.39,0,0,0,0-1.7C329.25,347,328.69,346.27,328.4,345.83Z" transform="translate(-212.37 -210.43)"/><path class="cls-1" d="M288.09,352.37s.4,2.81-1.22,3.74-2.72,1.75-3.7,1-2.32-2.12-2.25-2.77-.69.83-1.4.76a4.11,4.11,0,0,1-2.47-.82,5.76,5.76,0,0,1-1.37-2.09c0-.31-.65-.46-1.22-.4a3.08,3.08,0,0,1-2.54-1.44,10.44,10.44,0,0,1-.52-3.32c.07-.76.87-3.26,1.82-3.5s1.92,0,2.58-.56,1.6-2.06,2.49-1.32,1.24,1.41,1.87.81,1.33-1.33,2.15-1.2a3.34,3.34,0,0,1,2.38,1.67c.3.84.34,1.65-.33,2s-1,.32-.07.43a5,5,0,0,1,2.9,1.57,2.59,2.59,0,0,1,.05,2.42c-.46.66-2.14,1.31-1.23,1.58S288.06,351.92,288.09,352.37Z" transform="translate(-212.37 -210.43)"/><path class="cls-2" d="M281.62,350.36s.73,1.14.18,1.71-1,1.41-1.45.88-1.5-1.89-1.93-1.85-1.72-.05-1.7-.7a24.28,24.28,0,0,0,.15-2.45c-.1-.37.39-1.28,1.07-1.13a11.81,11.81,0,0,0,1.92.19c.31,0,1.18-.53,1,.12a2.23,2.23,0,0,0-.11,1.55C281,349.22,281.41,349.92,281.62,350.36Z" transform="translate(-212.37 -210.43)"/><path class="cls-1" d="M282.55,347.48s-1.6-3.36,0-5.16,2.71-3.26,4.24-2.69,3.74,1.73,3.91,2.57.53-1.31,1.44-1.5a5.25,5.25,0,0,1,3.41.05,7.51,7.51,0,0,1,2.53,2.06c.16.37,1,.32,1.68,0s3-.23,3.74.8a13.61,13.61,0,0,1,2,3.93c.21,1,.21,4.41-.88,5.09s-2.4.74-3,1.73-1.17,3.2-2.58,2.62-2.11-1.27-2.66-.26-1.13,2.18-2.2,2.35a4.38,4.38,0,0,1-3.63-1.15c-.7-.93-1.08-1.93-.39-2.63s1.18-.82-.09-.57a6.56,6.56,0,0,1-4.23-.81,3.39,3.39,0,0,1-1-3c.32-1,2.15-2.49.91-2.46S282.78,348,282.55,347.48Z" transform="translate(-212.37 -210.43)"/><path class="cls-2" d="M291.42,347.42s-1.36-1.13-.9-2.07.64-2.13,1.46-1.66,2.63,1.75,3.14,1.54,2.17-.62,2.41.2a29.79,29.79,0,0,0,.79,3.12c.25.42,0,1.75-.9,1.83a16.41,16.41,0,0,0-2.47.52c-.4.1-1.26,1.13-1.29.24a2.86,2.86,0,0,0-.48-2C292.71,348.58,291.87,347.88,291.42,347.42Z" transform="translate(-212.37 -210.43)"/><path class="cls-1" d="M306.88,338.22s2.57-.66,3.6.74,1.9,2.35,1.29,3.33-1.73,2.38-2.34,2.38.84.55.85,1.21a3.77,3.77,0,0,1-.51,2.38,5.34,5.34,0,0,1-1.79,1.48c-.28.06-.36.66-.24,1.17a2.85,2.85,0,0,1-1.08,2.5,9.66,9.66,0,0,1-3,.83c-.71,0-3.11-.47-3.43-1.32s-.18-1.78-.79-2.34-2.07-1.26-1.48-2.16,1.18-1.3.56-1.83-1.37-1.09-1.34-1.86a3.14,3.14,0,0,1,1.31-2.38c.74-.36,1.5-.49,1.89.1s.41.93.41,0a4.71,4.71,0,0,1,1.15-2.84,2.46,2.46,0,0,1,2.24-.3c.66.36,1.44,1.85,1.59,1S306.47,338.3,306.88,338.22Z" transform="translate(-212.37 -210.43)"/><path class="cls-2" d="M305.69,344.42s1-.79,1.57-.34,1.4.74,1,1.25-1.59,1.59-1.51,2,.13,1.6-.48,1.65-2,0-2.29.12-1.22-.23-1.15-.88a11.25,11.25,0,0,0,0-1.8c0-.29-.62-1,0-.93a2,2,0,0,0,1.45-.06C304.7,345.16,305.31,344.67,305.69,344.42Z" transform="translate(-212.37 -210.43)"/><path class="cls-1" d="M304.37,346.89s-1.61-3.78.25-5.92,3.08-3.85,4.71-3.26,4,1.84,4.15,2.79.62-1.52,1.62-1.78a5.5,5.5,0,0,1,3.7-.08,7.44,7.44,0,0,1,2.67,2.27c.16.42,1.08.32,1.82-.06s3.23-.38,4,.77a14.45,14.45,0,0,1,2,4.43c.2,1.12.06,5.06-1.16,5.89s-2.63.94-3.33,2.1-1.4,3.72-2.9,3.12-2.24-1.38-2.88-.2-1.32,2.55-2.49,2.79-3.16-.13-3.89-1.17-1.1-2.18-.32-3,1.31-1-.07-.65-3.91-.09-4.57-.76a3.83,3.83,0,0,1-1-3.41c.39-1.16,2.44-2.94,1.1-2.85S304.59,347.51,304.37,346.89Z" transform="translate(-212.37 -210.43)"/><path class="cls-2" d="M314,346.48s-1.43-1.25-.89-2.35.78-2.47,1.65-2,2.78,1.91,3.35,1.65,2.37-.8,2.6.13a36.21,36.21,0,0,0,.73,3.55c.27.47-.06,2-1.05,2.13a18.41,18.41,0,0,0-2.71.71c-.43.13-1.4,1.35-1.4.33a3.23,3.23,0,0,0-.44-2.26C315.36,347.75,314.47,347,314,346.48Z" transform="translate(-212.37 -210.43)"/><path class="cls-1" d="M213.57,439.54s-1.61-3.35,0-5.16,2.71-3.26,4.23-2.68,3.75,1.73,3.91,2.57.53-1.31,1.44-1.51a5.39,5.39,0,0,1,3.41.05,7.4,7.4,0,0,1,2.53,2.07c.17.37,1,.32,1.68,0s3-.23,3.74.79a13.28,13.28,0,0,1,2,3.94c.22,1,.22,4.41-.88,5.09s-2.4.74-3,1.72-1.17,3.21-2.57,2.63-2.11-1.27-2.66-.26-1.13,2.18-2.21,2.35a4.36,4.36,0,0,1-3.62-1.15c-.71-.93-1.09-1.93-.39-2.64s1.18-.81-.09-.56a6.66,6.66,0,0,1-4.24-.81,3.46,3.46,0,0,1-1-3c.32-1,2.16-2.48.92-2.45S213.79,440.09,213.57,439.54Z" transform="translate(-212.37 -210.43)"/><path class="cls-2" d="M222.44,439.49s-1.36-1.13-.9-2.07.64-2.13,1.46-1.67,2.63,1.76,3.14,1.55,2.16-.62,2.4.19a29.41,29.41,0,0,0,.79,3.13c.26.42,0,1.75-.9,1.82A17.84,17.84,0,0,0,226,443c-.4.1-1.25,1.13-1.28.24a2.86,2.86,0,0,0-.48-2C223.73,440.65,222.88,440,222.44,439.49Z" transform="translate(-212.37 -210.43)"/><path class="cls-1" d="M230.81,442.29s-.71-3.46,1-5.81,2.87-4.18,4-3.82,2.79,1.23,2.78,2.14.68-1.57,1.48-2,2-1,2.83-.59a3.91,3.91,0,0,1,1.72,1.84c.06.39.77.17,1.39-.3s2.52-.82,3,.18a12.75,12.75,0,0,1,.89,4c0,1.06-.66,4.92-1.7,5.9s-2.14,1.28-2.83,2.5-1.58,3.83-2.64,3.45-1.52-1-2.17.21-1.36,2.66-2.28,3.06-2.39.31-2.8-.61a2.69,2.69,0,0,1,.17-2.89c.71-.92,1.14-1.14,0-.62s-3,.46-3.37-.1a3.79,3.79,0,0,1-.28-3.19c.45-1.19,2.26-3.2,1.23-2.93S230.89,442.86,230.81,442.29Z" transform="translate(-212.37 -210.43)"/><path class="cls-2" d="M238.2,440.55a2.07,2.07,0,0,1-.35-2.16c.56-1.14.94-2.51,1.53-2.15s1.86,1.48,2.32,1.14,1.92-1.11,2-.23-.07,2.94.06,3.36-.32,2-1.09,2.22a14.89,14.89,0,0,0-2.16,1.07c-.35.18-1.26,1.5-1.12.51a3.53,3.53,0,0,0,0-2.14A15.75,15.75,0,0,0,238.2,440.55Z" transform="translate(-212.37 -210.43)"/><path class="cls-1" d="M340.63,428.4s3.51-1.24,5.13.59,2.95,3,2.22,4.5-2.12,3.53-3,3.61,1.24.67,1.34,1.59a5.39,5.39,0,0,1-.41,3.39,7.71,7.71,0,0,1-2.32,2.3c-.39.12-.43,1-.2,1.67s-.09,3-1.18,3.63a13.55,13.55,0,0,1-4.12,1.53c-1,.11-4.41-.26-5-1.42s-.47-2.46-1.39-3.16-3.06-1.51-2.34-2.85,1.49-2,.55-2.61-2-1.36-2.1-2.45a4.36,4.36,0,0,1,1.52-3.48c1-.6,2-.87,2.67-.1s.68,1.25.57,0a6.7,6.7,0,0,1,1.25-4.13,3.46,3.46,0,0,1,3.1-.7c1,.43,2.24,2.41,2.34,1.18S340.07,428.57,340.63,428.4Z" transform="translate(-212.37 -210.43)"/><path class="cls-2" d="M339.74,437.23s1.27-1.23,2.16-.68,2,.87,1.5,1.63-2,2.43-1.87,3,.38,2.22-.45,2.37a29.79,29.79,0,0,0-3.19.45c-.45.21-1.75-.18-1.72-1.09a15.52,15.52,0,0,0-.27-2.51c0-.41-1-1.37-.1-1.3a2.85,2.85,0,0,0,2-.27C338.45,438.39,339.24,437.62,339.74,437.23Z" transform="translate(-212.37 -210.43)"/><path class="cls-3" d="M287.64,449.88H251.87a5.56,5.56,0,0,1-3.29-1,8.1,8.1,0,0,1-1-1.7l-13.78-91.75c-.31-2.46.68-2.82,1.52-3.6a9.05,9.05,0,0,1,4.17-1.52c1.26-.15,2.46.52,4,1.2a9.49,9.49,0,0,1,3.55,3.13c.73,1,1.41.16,1.72-.31a10.35,10.35,0,0,1,2.93-2.09,12,12,0,0,1,4.8-.73,28.51,28.51,0,0,1,5.32.94c1.51.37,2.3,1.72,3.13,2.45s1.67-.15,2-.41a9.63,9.63,0,0,1,2.29-1.52,19,19,0,0,1,4.7-.1,6.06,6.06,0,0,1,3.55,2.14,2.79,2.79,0,0,0,1.83.94c.41,0,.93-1,1.3-1.36a14.11,14.11,0,0,1,3-1.77,21.78,21.78,0,0,1,4-.37h0a22,22,0,0,1,4,.37,14,14,0,0,1,3,1.77c.37.37.89,1.36,1.31,1.36a2.79,2.79,0,0,0,1.82-.94,6.06,6.06,0,0,1,3.55-2.14,18.93,18.93,0,0,1,4.7.1,9.93,9.93,0,0,1,2.3,1.52c.31.26,1.14,1.15,2,.41s1.62-2.08,3.13-2.45a28.51,28.51,0,0,1,5.32-.94,12,12,0,0,1,4.81.73,10.43,10.43,0,0,1,2.92,2.09c.31.47,1,1.31,1.72.31a9.49,9.49,0,0,1,3.55-3.13c1.57-.68,2.77-1.35,4-1.2a9.05,9.05,0,0,1,4.17,1.52c.84.78,1.83,1.14,1.52,3.6l-13.78,91.75a8.1,8.1,0,0,1-1,1.7,5.56,5.56,0,0,1-3.29,1Z" transform="translate(-212.37 -210.43)"/><path class="cls-1" d="M255.26,400.51c0-7.21,4-13.69,10.29-18.23h0L264.4,360a4.11,4.11,0,0,0-1.25-2.3c-.94-.63-2.09-1.67-3.13-1.88a18,18,0,0,0-3.86-.57,14.36,14.36,0,0,0-3.86.52,8.19,8.19,0,0,0-2.61,1.77c-.27.42-.68.47-.63,2.3l9.3,87.73H270.1l-1.52-26.87h0C260.51,416.14,255.26,408.8,255.26,400.51Z" transform="translate(-212.37 -210.43)"/><polygon class="cls-1" points="74.92 146.22 74.92 146.22 74.93 146.22 74.92 146.22"/><path class="cls-1" d="M294.81,376.38h0V360.45s-1.85-3.79-7.52-3.8-7.52,3.8-7.52,3.8v15.92h0a40.74,40.74,0,0,1,15,0Z" transform="translate(-212.37 -210.43)"/><path class="cls-1" d="M280.86,424.84v22.69h12.87V424.84a41.66,41.66,0,0,1-12.87,0Z" transform="translate(-212.37 -210.43)"/><path class="cls-1" d="M325.22,357.5a8.43,8.43,0,0,0-2.61-1.77,14.49,14.49,0,0,0-3.87-.52,18.16,18.16,0,0,0-3.86.57c-1,.21-2.19,1.25-3.13,1.88a4.11,4.11,0,0,0-1.25,2.3l-1.16,22.54h0c6.15,4.53,10,10.92,10,18,0,8.19-5.11,15.44-13,20h0l-1.54,27h11.74l9.3-87.73C325.89,358,325.48,357.92,325.22,357.5Z" transform="translate(-212.37 -210.43)"/><path class="cls-4" d="M319.33,400.51c0-7.09-3.84-13.48-10-18l-.47,1.48.47-1.48a35.6,35.6,0,0,0-14.53-6.12l-.39,1.11.39-1.11a40.74,40.74,0,0,0-15,0v0a35.71,35.71,0,0,0-14.22,5.9l.38,1.42-.38-1.42c-6.33,4.54-10.29,11-10.29,18.23,0,8.29,5.25,15.63,13.32,20.14l-.11-1.87.11,1.87a37.08,37.08,0,0,0,12.28,4.19h0v0h0a41.66,41.66,0,0,0,12.87,0h0v0h0a37.09,37.09,0,0,0,12.61-4.36l-.29-1.39.29,1.39C314.22,416,319.33,408.7,319.33,400.51Z" transform="translate(-212.37 -210.43)"/><ellipse class="cls-5" cx="74.93" cy="190.08" rx="32.04" ry="24.83"/><ellipse class="cls-4" cx="74.88" cy="190.08" rx="29.3" ry="21.44"/></g><g id="Contour_fennec" data-name="Contour fennec"><path class="cls-6" d="M296.9,321.84h33.52c-3.44,6-11.59,18.32-27,25.88a58.3,58.3,0,0,1-16.22,4.91A58.34,58.34,0,0,1,271,347.72c-15.4-7.56-23.56-19.84-27-25.88h33.67" transform="translate(-212.37 -210.43)"/><path class="cls-7" d="M239.42,292.83S229,279.42,227,276.08s-6.92-12.33-8.08-15.5-4.67-14-5-18.16-.67-11.25-.34-13.25.75-8.59,2.25-11.59,3.17-5.25,4.5-5.91a7.2,7.2,0,0,1,4.42-.92,28.56,28.56,0,0,1,9.58,3.92c2.67,2,11.67,9.66,14.75,12.33a44.56,44.56,0,0,1,8.25,10.25,84.16,84.16,0,0,1,5.17,11.58c.5,1.84,3,10.42,3.5,12.5s1.25,6.5,1.25,6.5-1-2.66-1.5-4.25-2.92-8-4-10.58-3.25-7.33-4.25-9.08a76.1,76.1,0,0,0-4.17-7.17,70.32,70.32,0,0,0-7.41-7.58c-2.17-1.75-6.67-5.09-8.25-6.5a80.15,80.15,0,0,0-7.59-5.42c-.91-.5-4-2.17-4.75-2.08s-3.08-.75-3.91,1-2.84,6.08-3.09,8.5a91.38,91.38,0,0,0-.75,9.75c.09,2.66.25,8.83.92,11.83s2.42,10.92,3.25,12.92,3.33,8.33,4.42,10.58,5.33,10,6.08,11.25,3.25,5.58,3.92,6.5S239.42,292.83,239.42,292.83Z" transform="translate(-212.37 -210.43)"/><path class="cls-7" d="M247.5,291.75s2.61-5.78,3.75-7.08c1.6-1.84,4.19-5.22,5.17-6.25a20.51,20.51,0,0,1,4-3.09c.58-.25,1.75-.91,1.75-.91s-2.84,2.66-4.25,4.16a83.55,83.55,0,0,0-5.75,6.92C251.17,287,247.5,291.75,247.5,291.75Z" transform="translate(-212.37 -210.43)"/><path class="cls-7" d="M335.28,292.83s10.42-13.41,12.42-16.75,6.91-12.33,8.08-15.5,4.67-14,5-18.16.67-11.25.33-13.25-.75-8.59-2.25-11.59-3.16-5.25-4.5-5.91a7.17,7.17,0,0,0-4.41-.92,28.68,28.68,0,0,0-9.59,3.92c-2.66,2-11.66,9.66-14.75,12.33a44.83,44.83,0,0,0-8.25,10.25,84,84,0,0,0-5.16,11.58c-.5,1.84-3,10.42-3.5,12.5s-1.25,6.5-1.25,6.5,1-2.66,1.5-4.25,2.91-8,4-10.58,3.25-7.33,4.25-9.08a76,76,0,0,1,4.16-7.17,69.54,69.54,0,0,1,7.42-7.58c2.17-1.75,6.67-5.09,8.25-6.5a80.16,80.16,0,0,1,7.58-5.42c.92-.5,4-2.17,4.75-2.08s3.09-.75,3.92,1,2.83,6.08,3.08,8.5a88.84,88.84,0,0,1,.75,9.75c-.08,2.66-.25,8.83-.91,11.83s-2.42,10.92-3.25,12.92-3.34,8.33-4.42,10.58-5.33,10-6.08,11.25-3.25,5.58-3.92,6.5S335.28,292.83,335.28,292.83Z" transform="translate(-212.37 -210.43)"/><path class="cls-7" d="M327.2,291.75s-2.61-5.78-3.75-7.08c-1.61-1.84-4.19-5.22-5.17-6.25a20.81,20.81,0,0,0-4-3.09c-.58-.25-1.75-.91-1.75-.91s2.83,2.66,4.25,4.16a83.55,83.55,0,0,1,5.75,6.92C323.53,287,327.2,291.75,327.2,291.75Z" transform="translate(-212.37 -210.43)"/><path class="cls-7" d="M288.2,344.43h.43a10,10,0,0,1,2.34.71c.58.21,2,.79,2.62,1.08a11.67,11.67,0,0,0,4.13.21,9.84,9.84,0,0,0,3.75-1.17,6.79,6.79,0,0,0,2-1.95c.7-.84.58-3.34.5-5.13a27.92,27.92,0,0,0-1.75-6.42c-.42-.95-2.38-5.25-2.84-6.16a37.85,37.85,0,0,1-1.54-4.21A18.15,18.15,0,0,1,298,316a17.56,17.56,0,0,1,1.79-3.87c.54-.88,2.91-2.29,3.83-2.71a14.65,14.65,0,0,1,3.79-.67,16.26,16.26,0,0,1,4,.75,22.54,22.54,0,0,1,3.79,2.34c.79.62,3,2.83,3,2.83a27.89,27.89,0,0,0-3.54-4,17.11,17.11,0,0,0-4.79-2.67,15.46,15.46,0,0,0-4.5-.21,10.72,10.72,0,0,0-4.88,2.17,13.53,13.53,0,0,0-3,4.25,15.66,15.66,0,0,0-.87,5.58,21.38,21.38,0,0,0,1.29,5.21c.63,1.34,1.46,3.25,2.08,4.63A42.36,42.36,0,0,1,302,335a16.39,16.39,0,0,1,.62,4,26.84,26.84,0,0,1-.29,3.13,4.35,4.35,0,0,1-2.42,2,11.85,11.85,0,0,1-3.12.67,13,13,0,0,1-4-.92,24.4,24.4,0,0,0-3.42-1.17l-1.22-.19c-.26,0-1.47-.05-1.47-.05a7.91,7.91,0,0,0-1.4.22,22.86,22.86,0,0,0-3.42,1.16,13,13,0,0,1-4,.92,11.46,11.46,0,0,1-3.12-.67,4.31,4.31,0,0,1-2.42-2A26.61,26.61,0,0,1,272,339a16.73,16.73,0,0,1,.62-4,42.46,42.46,0,0,1,2.09-5.42c.62-1.37,1.45-3.29,2.08-4.62a21.15,21.15,0,0,0,1.29-5.21,15.66,15.66,0,0,0-.87-5.58,13.15,13.15,0,0,0-3-4.25,10.72,10.72,0,0,0-4.88-2.17,15.12,15.12,0,0,0-4.5.21,17.32,17.32,0,0,0-4.79,2.66,27.89,27.89,0,0,0-3.54,4s2.17-2.2,3-2.83a22.88,22.88,0,0,1,3.79-2.33,15.88,15.88,0,0,1,4-.75,15,15,0,0,1,3.79.66c.92.42,3.29,1.84,3.83,2.71a17.89,17.89,0,0,1,1.8,3.88,18.42,18.42,0,0,1,.12,5.41,36.44,36.44,0,0,1-1.54,4.21c-.46.92-2.42,5.21-2.84,6.17a27.78,27.78,0,0,0-1.75,6.42c-.08,1.79-.2,4.29.5,5.12a7,7,0,0,0,2,2,10.21,10.21,0,0,0,3.75,1.17,11.92,11.92,0,0,0,4.13-.21c.62-.29,2-.88,2.62-1.09a11.43,11.43,0,0,1,2.43-.78c.19,0,.46,0,.68,0Z" transform="translate(-212.37 -210.43)"/><path class="cls-7" d="M287.21,330.42a13.33,13.33,0,0,1,2.14,0,6.92,6.92,0,0,1,1.9.48c.35.22,1.21,1.08,1.23,1.45a6,6,0,0,1-.27,2.75,10.36,10.36,0,0,1-1.63,2.17,8.86,8.86,0,0,1-1.62,1.35,4.72,4.72,0,0,1-1.66.69h-.17a4.65,4.65,0,0,1-1.66-.69,9.22,9.22,0,0,1-1.63-1.35,10.66,10.66,0,0,1-1.62-2.17,6,6,0,0,1-.27-2.75c0-.37.87-1.23,1.23-1.45a6.94,6.94,0,0,1,1.89-.48A13.31,13.31,0,0,1,287.21,330.42Z" transform="translate(-212.37 -210.43)"/><path class="cls-7" d="M283.85,334.84s-.45-.82-.27-1.22.32-.74.63-.77.83,0,1,.21a2,2,0,0,1,.35,1.19c0,.54-.17,1.19-.4,1.25a1.19,1.19,0,0,1-.79,0A2,2,0,0,1,283.85,334.84Z" transform="translate(-212.37 -210.43)"/><path class="cls-7" d="M290.5,334.84s.45-.82.27-1.21-.32-.75-.63-.78-.83,0-1,.21a2,2,0,0,0-.35,1.19c0,.54.17,1.19.39,1.25a1.22,1.22,0,0,0,.8,0A2,2,0,0,0,290.5,334.84Z" transform="translate(-212.37 -210.43)"/><path class="cls-7" d="M287.21,350.5a13.05,13.05,0,0,1-2.37-.25,21.42,21.42,0,0,1-2.14-1,3.89,3.89,0,0,1-1-.69c-.15-.1-.4-.68.17-.43a11.13,11.13,0,0,0,2.48.95c.77.11,2.38.32,2.84.32s2.08-.21,2.84-.32a11.22,11.22,0,0,0,2.49-.95c.56-.25.31.33.17.43a4.1,4.1,0,0,1-1,.69,20.64,20.64,0,0,1-2.15,1A13,13,0,0,1,287.21,350.5Z" transform="translate(-212.37 -210.43)"/><text class="cls-8" transform="translate(52.45 199.2)">WM</text></g><g id="Contour_lunette" data-name="Contour lunette"><path class="cls-5" d="M287.3,308.68s-3.91.05-5,.11-1.31.58-1.81,1.13a4.16,4.16,0,0,0-.74,1.68s0,9.3,0,10.48-.34,1.36-.34,1.36-31.07.06-32.82,0-2-.45-2.49-1.07a3.8,3.8,0,0,1-.68-1.19s-.05-17.94,0-19.18a2.5,2.5,0,0,1,1-1.92c.28-.34,2.15-.34,2.15-.34h81.59s1.87,0,2.15.34a2.5,2.5,0,0,1,1,1.92c.05,1.24,0,19.18,0,19.18a3.8,3.8,0,0,1-.68,1.19c-.51.62-.74,1-2.49,1.07s-32.82,0-32.82,0-.34-.17-.34-1.36-.05-10.48-.05-10.48a4.16,4.16,0,0,0-.74-1.68c-.5-.55-.68-1.07-1.81-1.13S287.3,308.68,287.3,308.68Z" transform="translate(-212.37 -210.43)"/><rect class="cls-9" x="86" y="92.81" width="28.2" height="16.63"/><rect class="cls-10" x="35.75" y="92.81" width="28.2" height="16.63"/></g></svg>